<?xml version="1.0" standalone="no"?><!DOCTYPE svg PUBLIC "-//W3C//DTD SVG 1.1//EN" "http://www.w3.org/Graphics/SVG/1.1/DTD/svg11.dtd"><svg t="1533720569606" class="icon" style="" viewBox="0 0 1024 1024" version="1.1" xmlns="http://www.w3.org/2000/svg" p-id="2812" xmlns:xlink="http://www.w3.org/1999/xlink" width="200" height="200"><defs><style type="text/css"></style></defs><path d="M978.68342 177.117361a127.635001 127.635001 0 0 0-90.519653-37.516131h-136.194577C747.803912 45.159631 712.592282 0 592.357448 0H406.179534c-111.231535 0-145.913559 35.784177-149.792564 139.60123H135.779981A128.007157 128.007157 0 0 0 7.787138 267.665642v7.815264a127.921275 127.921275 0 0 0 107.867822 126.260889l0.715684 472.923679c0 128.579704 38.374951 149.334526 150.164719 149.334526h465.394688c120.549734 0 160.127034-30.702824 160.127034-149.334526v-471.492312a127.935588 127.935588 0 0 0 124.085211-127.792452v-7.91546a127.291473 127.291473 0 0 0-37.458876-90.347889z m-572.546827-115.053285h186.220855c74.230696 0 94.599049 7.91546 97.576293 77.537154H318.250655c1.116466-67.360134 10.749567-77.537154 87.943193-77.537154zM830.03595 874.565278c0 84.85144-10.87839 87.313391-98.062958 87.313391H266.549677c-90.176125 0-88.100643-5.725468-88.100643-87.313391V403.35924h651.586916z m145.913559-604.852781a90.419458 90.419458 0 0 1-90.176125 90.176125H138.141737a90.419458 90.419458 0 0 1-90.176125-90.176125 90.419458 90.419458 0 0 1 90.176125-90.176126H885.787697a90.419458 90.419458 0 0 1 90.176126 90.176126z" fill="#6A3906" p-id="2813"></path><path d="M154.058539 887.79111c0 85.323791-2.189992 91.306905 93.754543 91.306905h495.253005c92.752586 0 104.346659-2.519206 104.346659-91.306905V394.699469h-693.354207z" fill="#D2F4FF" p-id="2814"></path><path d="M154.044225 887.79111c0 85.323791-2.175678 91.306905 93.754543 91.306905h495.253005c92.752586 0 104.332346-2.519206 104.332346-91.306905V394.699469H154.044225z" fill="#D2F4FF" p-id="2815"></path><path d="M314.529101 806.732793a15.501705 15.501705 0 0 0-15.487392 15.501705v31.046352a15.544646 15.544646 0 0 0 31.032038 0v-31.060665a15.573274 15.573274 0 0 0-15.544646-15.487392z m0-341.309477a15.430137 15.430137 0 0 0-15.430137 15.430137v263.815264a15.516019 15.516019 0 0 0 31.032038 0V480.939335a15.501705 15.501705 0 0 0-15.501706-15.487392z m186.177914 0A15.473078 15.473078 0 0 0 485.190996 480.939335v372.327201a15.516019 15.516019 0 0 0 31.003411 0V480.939335a15.487392 15.487392 0 0 0-15.487392-15.501706z m186.149287 0A15.473078 15.473078 0 0 0 671.340283 480.939335v372.355829a15.530333 15.530333 0 0 0 31.060666 0V480.939335a15.587587 15.587587 0 0 0-15.487392-15.530333z" fill="#6A3906" p-id="2816"></path><path d="M596.436845 36.385351H394.256246c-83.820855 0-94.312776 13.540732-95.529438 103.215879h403.645513c-3.23489-92.65239-25.349511-103.215879-105.921163-103.215879z" fill="#D2F4FF" p-id="2817"></path></svg>