<?xml version="1.0" standalone="no"?><!DOCTYPE svg PUBLIC "-//W3C//DTD SVG 1.1//EN" "http://www.w3.org/Graphics/SVG/1.1/DTD/svg11.dtd"><svg t="1533728909318" class="icon" style="" viewBox="0 0 1024 1024" version="1.1" xmlns="http://www.w3.org/2000/svg" p-id="778" xmlns:xlink="http://www.w3.org/1999/xlink" width="200" height="200"><defs><style type="text/css"></style></defs><path d="M604.2762208 718.64550896l43.35634387-43.35162826 203.44747782 203.4474779-43.35634375 43.35634389z" fill="#666666" p-id="779"></path><path d="M541.04821923 788.35904002c-186.31153395 67.9211655-393.37675575-28.77215887-460.826249-215.08369286-67.9211655-186.31153395 28.77215887-393.37675575 215.08369282-460.82624511 186.31153395-67.9211655 393.37675575 28.77215887 460.82624899 215.08369276 67.44949329 185.83985782-28.77215887 392.90507962-215.08369281 460.82624521z m-228.29058962-627.32743968c-159.42607177 58.01599777-241.96915487 234.89403234-183.95315713 394.32010411s234.89403234 241.96915487 394.3201041 183.95316103c159.42607177-58.01599777 241.96915487-234.89403234 183.95315716-394.3201041s-234.89403234-241.96915487-394.32010413-183.95316104z" fill="#666666" p-id="780"></path><path d="M541.04821923 788.35904002c-186.31153395 67.9211655-393.37675575-28.77215887-460.826249-215.08369286-67.9211655-186.31153395 28.77215887-393.37675575 215.08369282-460.82624511 186.31153395-67.9211655 393.37675575 28.77215887 460.82624899 215.08369276 67.44949329 185.83985782-28.77215887 392.90507962-215.08369281 460.82624521z m-228.29058962-627.32743968c-159.42607177 58.01599777-241.96915487 234.89403234-183.95315713 394.32010411s234.89403234 241.96915487 394.3201041 183.95316103c159.42607177-58.01599777 241.96915487-234.89403234 183.95315716-394.3201041s-234.89403234-241.96915487-394.32010413-183.95316104z" fill="#666666" p-id="781"></path></svg>